Patient4_TMGait_0pt3_02_right_13_EMG.mot
version=1
nRows=36
nColumns=33
inDegrees=no
endheader
time	1LAddLong	2LGlutMax	3LGlutMed	4LIliopsoas	5LSemiMemb	6LBicFemLong	7LRecFem	8LVastMed	9LVastLat	10LGasMed	11LTibAnt	12lTibPost	13LPeroneusLong	14LSol	15LExtDigLong	16LFlexDigLong	17RAddLong	18RGlutMax	19RGlutMed	20RIliopsoas	21RSemiMemb	22RBicFemLong	23RRecFem	24RVastMed	25RVastLat	26RGasMed	27RTibAnt	28RTibPost	29RPeroneusLong	30RSol	31RExtDigLong	32RFlexDigLong
25.715	0.025635	0.000153	0.058136	-0.000763	-0.004578	0.047455	-0.020905	-0.014038	0.058441	0.008545	-0.019226	-0.004425	0.06012	-0.059967	0.12482	0.00824	0.012207	-0.061951	-0.14023	0.041962	-0.018616	0.020905	0.079803	0.095673	0.001221	0.004425	0.10162	0.002136	-0.57602	-0.20752	0.000763	-0.001831
25.716	0.028381	0.005035	0.032196	-0.007935	-0.002289	0.032654	-0.045013	-0.011444	0.12863	0.010376	0.037689	-0.011139	0.013275	-0.057373	0.15091	-0.019073	0.012207	-0.1181	-0.33783	0.015564	-0.024109	-0.009003	0.13473	0.030365	-0.039825	0.007172	1.0287	-0.00412	-0.47928	-0.23682	0.002136	-0.001984
25.717	0.02594	0.041351	0.016632	0.00412	0.097809	0.027618	-0.072479	-0.016785	0.21011	-0.003662	0.053101	-0.004883	0.037689	-0.028381	0.16266	-0.030823	0.006866	-0.075684	-0.39444	-0.035248	-0.005798	0.005951	0.1236	-0.03952	0.11307	0.011597	0.17532	0.001526	0.5864	-0.37521	-0.001831	0.001984
25.718	0.011597	0.033722	0.009003	0.005188	0.10925	0.025177	-0.10284	-0.007477	0.23697	0.001678	0.039673	-0.007935	0.057373	0.019684	0.12253	-0.037537	0.004578	-0.10803	0.29175	-0.12283	-0.01358	0.006714	0.097504	-0.23712	0.22232	0.017395	-0.48996	0.000305	0.66727	-0.33249	-0.000916	-0.008392
25.719	0.005646	0.023499	0.005188	0.009766	0.080261	-0.007782	-0.19791	-0.000763	0.21088	0.018616	0.030518	-0.005951	0.025177	0.038147	0.075073	-0.081329	-0.003204	-0.10925	0.15167	-0.13916	-0.014496	0.030518	0.16342	-0.13672	0.23209	-0.001068	-0.64545	-0.000916	-0.32105	-0.049286	-0.004578	-0.017548
25.72	-0.003967	0.033264	-0.008392	0.002289	0.04364	-0.037231	-0.20157	-0.000458	0.084991	0.015869	-0.046692	-0.008087	0.005646	0.008698	0.090179	-0.10529	-0.004272	-0.14481	0.089722	-0.16647	-0.010681	0.01297	0.19363	-0.19165	0.18265	-0.012817	-0.75714	-0.007019	-0.27695	0.094604	-0.006561	-0.016785
25.721	-0.000153	0.015717	-0.028992	0.006104	0.01297	-0.066681	-0.10117	0.001678	-0.047302	0.039368	-0.084839	-0.00473	-0.03067	0.050964	0.25604	-0.11002	0.007019	-0.11414	-0.011292	-0.055237	0.001984	0.005035	0.14984	-0.27679	0.084839	-0.012207	-0.40344	0.001068	-0.7605	0.097198	-0.002899	-0.019836
25.722	-0.002899	0.029907	-0.037842	0.00351	-0.016937	-0.035248	-0.03006	0.012665	-0.21866	0.04303	-0.094147	-0.007629	-0.028229	0.094299	0.57907	-0.10346	0.017242	-0.13657	-0.13489	0.13214	0.025635	0.039063	0.19821	-0.26489	0.00824	-0.005951	0.26154	-0.000763	-0.68558	0.15457	-0.002594	-0.007019
25.723	-0.020447	0.060577	-0.041962	0.006714	-0.063782	0.012512	0	0.019531	-0.30304	0.013428	-0.050659	-0.006104	0.00473	0.16174	-0.14114	-0.093079	-0.002899	-0.14023	-0.042114	0.29373	0.029449	0.059204	0.10727	-0.35126	-0.12894	0.008392	0.448	0.001678	0.08728	-0.004578	-0.002747	-0.00473
25.724	-0.027771	0.052032	-0.088043	0.013885	-0.053101	0.15488	-0.044708	0.024109	-0.25421	0.003967	0.007172	-0.015259	0.08194	0.2063	0.159	-0.075989	-0.010071	-0.1033	0.018921	0.1976	0.029144	0.061646	-0.088806	-0.19821	-0.34958	0.00946	0.19272	-0.000458	0.88028	-0.1091	-0.002441	-0.009308
25.725	-0.058136	0.065613	-0.13046	-0.010986	-0.081329	0.22781	-0.063782	0.01297	-0.1297	-0.007172	0.15076	-0.015564	0.103	0.23132	-0.021667	-0.065155	-0.013733	-0.068359	0.037231	-0.008392	0.025635	0.13641	-0.27664	-0.13428	-0.48767	-0.012512	0.26108	0.001068	0.49469	0.004883	-0.002441	-0.017548
25.726	-0.052643	0.068207	-0.080261	-0.00885	-0.044556	0.24872	0.022888	0.015564	-0.12421	-0.081329	-0.041351	-0.009766	0.21759	0.2945	0.13214	-0.055847	-0.029907	0.008087	-0.05722	-0.21347	0.032806	0.18677	-0.62012	-0.026093	-0.32333	-0.010681	0.47272	-0.00824	0.18509	0.025024	-0.005951	-0.013428
25.727	-0.068054	0.045166	-0.023804	-0.000763	-0.033417	0.20859	0.059357	0.025787	-0.20309	-0.057526	0.005646	-0.015411	0.061951	0.26886	0.02594	-0.054474	-0.014954	-0.014191	-0.14816	-0.28183	0.026093	0.10819	-0.7164	0.14435	0.27481	-0.000305	0.5368	-0.000763	-0.121	0.018921	-0.005798	-0.014648
25.728	-0.077209	0.023804	0.04303	0.001221	-0.12787	0.1947	0.02655	0.027771	-0.20035	-0.035248	0.19287	-0.006256	-0.07309	0.23514	-0.20645	-0.04425	0.005035	-0.038605	-0.16373	-0.16281	0.009003	-0.023804	-0.45822	0.47287	0.52734	0.00061	0.093384	-0.00061	-0.20477	0.052338	-0.001984	-0.009003
25.729	-0.067902	0.044098	-0.041809	-0.004883	-0.11841	0.15411	-0.027618	0.026245	-0.11322	-0.022736	0.15976	-0.00473	-0.12756	0.097656	-0.39856	-0.033722	0.024109	-0.035095	-0.14999	-0.076752	-0.027466	-0.14221	-0.087585	0.41046	0.44357	0.00351	0.013733	-0.003815	-0.26871	-0.12894	-0.00412	-0.011749
25.73	-0.045624	0.050354	-0.075531	0.004578	-0.047302	0.054169	-0.040131	0.016327	-0.068665	-0.046082	0.02655	-0.010834	-0.071259	-0.003052	-0.50156	-0.023956	0.046692	-0.035706	0.15595	0.092621	-0.037689	-0.1886	0.054932	0.001831	0.29602	0.005646	-0.16617	-0.000153	0.24658	-0.1181	-0.005493	-0.001526
25.731	-0.010681	0.039978	-0.099335	0.006256	-0.012817	0.030518	-0.028687	0.012512	-0.086823	-0.04715	-0.18967	-0.003662	0.011597	0.003204	-0.31357	-0.027161	0.029602	-0.043488	0.12024	0.30975	-0.026855	-0.21515	0.034485	-0.069275	0.19684	0.003662	-0.34454	-0.000305	0.40878	-0.026703	-0.005951	-0.005035
25.732	0.020447	0.1265	-0.015411	0.000763	0.055695	-0.08667	0.012054	0.012054	-0.003662	-0.020599	-0.17609	-0.017242	-0.10284	-0.055847	-0.062103	-0.011902	0.015411	-0.041809	0.034332	0.38513	0.007782	-0.2092	0.020599	0.017242	0.037994	-0.001221	0.050354	-0.004883	-0.14511	0.062561	-0.002136	-0.011292
25.733	0.066223	0.17136	-0.079193	-0.005493	0.21835	-0.14496	-0.11276	0.032806	0.14847	-0.02182	-0.1004	-0.019531	-0.11551	-0.056915	-0.063782	-0.021057	0.004272	-0.032806	-0.1799	0.29022	0.001526	-0.14862	0.015411	0.12543	-0.22553	-0.016327	0.19791	-0.001678	-0.61783	0.24658	-0.000916	-0.013428
25.734	0.072632	0.17777	-0.042114	-0.00824	0.16388	-0.073395	-0.21957	0.010986	0.10651	-0.043945	-0.081635	-0.020905	-0.052185	-0.01709	0.11047	-0.028992	0.002899	-0.1088	-0.003204	0.12528	0.000305	-0.04364	0.025024	0.08194	-0.41275	-0.013885	0.13153	0.001068	-0.33875	0.35492	-0.001526	-0.015259
25.735	0.072174	0.1535	-0.022736	0.005646	0.1001	0.063782	-0.1947	0.025482	0.007477	-0.026855	0.024872	-0.020294	-0.057068	-0.048828	0.19333	-0.024719	0.010986	-0.10681	0.075226	0.044861	0.004578	0.02594	0.1178	0.094452	-0.57526	-0.011902	0.077209	-0.002136	-0.28244	0.29266	-0.001984	-0.010681
25.736	0.080872	0.15915	0.018768	-0.004425	0.041199	0.11765	-0.12085	0.024567	0.006714	-0.017395	0.039368	-0.019379	-0.045471	-0.018005	0.2121	-0.030212	0.019073	-0.035095	0.24307	0.004578	0.002594	0.22003	0.21774	0.11826	-0.41916	-0.00885	-0.16907	-0.001831	-0.67871	0.14343	-0.003204	-0.013123
25.737	0.074615	0.19028	0.13733	0.011749	0.04776	-0.1181	-0.089264	0.010376	0.003662	0.003357	0.048218	-0.023956	-0.092468	0.009918	0.1207	-0.05127	0.029755	-0.014801	0.23743	-0.063019	-0.008698	0.08606	0.15427	-0.011902	-0.22934	-0.001221	-0.29144	-0.001068	-0.88837	0.087891	-0.004272	-0.005951
25.738	0.078735	0.17853	0.10101	0.021515	0.038452	-0.32105	-0.12329	0.002899	0.014648	0.000458	0.037231	-0.023346	-0.12009	0.015869	-0.007935	-0.071716	0.035706	-0.027924	-0.013428	-0.050049	-0.010681	0.00061	0.066833	-0.019379	-0.13443	-0.008545	-0.39749	-0.000763	0.37918	0.12039	-0.004425	-0.011292
25.739	0.053101	0.14008	0.076599	0.022125	0.031128	-0.32013	-0.15884	0.005188	0.025787	0.003204	0.030975	-0.016785	-0.12848	0.006561	-0.011749	-0.081177	0.004425	-0.042572	-0.19272	-0.042725	0.002441	0.015411	-0.001678	0.034332	-0.10086	-0.017548	-0.33936	-0.005035	1.2416	0.13947	-0.005798	-0.010681
25.74	0.030823	0.12344	0.077515	0.017395	0.058136	-0.36209	-0.14481	-0.012817	0.041504	-0.018311	0.053864	-0.017395	-0.11475	0.036316	0.043182	-0.083771	0.008698	0.016632	-0.41321	-0.034637	-0.015717	0.017395	-0.012817	0.0737	-0.085754	-0.012054	-0.11993	-0.002747	0.3804	0.097504	-0.006561	-0.012817
25.741	0.000305	0.076752	0.052948	0.009766	0.061188	-0.19104	-0.055847	-0.012054	0.06424	-0.016174	0.07309	-0.02594	-0.098724	0.02182	0.12497	-0.063019	0.011292	-0.070953	-0.62515	-0.056763	-0.009766	0.013428	-0.050201	0.044708	0.006714	-0.007019	0.092621	-0.000763	0.35141	-0.00885	-0.003815	-0.01236
25.742	-0.024261	0.045166	0.028992	0.004425	0.059814	-0.020752	-0.075989	-0.004425	0.004883	-0.027313	0.045471	-0.023346	-0.088959	0.037842	0.14389	-0.050201	0.016479	-0.019684	-0.49271	-0.005951	-0.00946	-0.002136	-0.09903	0.017242	0.080109	-0.00412	0.16571	-0.004272	0.2681	-0.017395	-0.002747	-0.015717
25.743	-0.045319	-0.026703	0.018005	0.002747	0.016937	0.077667	-0.13245	-0.001678	-0.044556	-0.003357	0.015869	-0.020294	-0.097198	0.005798	0.12054	-0.053253	0.015259	-0.020447	-0.12192	-0.014648	-0.015259	0.057831	-0.090027	0.024109	0.085297	-0.004272	0.2562	-0.000458	0.008392	-0.10422	-0.002441	-0.019379
25.744	-0.050049	-0.005798	0.012665	-0.00061	-0.061798	0.15182	-0.075226	-0.006256	-0.062561	-0.00946	0.044403	-0.022736	-0.097504	0.032501	0.080566	-0.029144	0.005035	0.04425	0.70374	-0.09964	-0.023651	0.065002	-0.023804	-0.005951	0.11368	-0.007172	0.32974	-0.00061	-0.046082	-0.097046	-0.003052	-0.023651
25.745	-0.020142	0.007629	-0.004883	-0.004425	-0.13901	0.14862	-0.040283	-0.006256	-0.042572	-0.00946	0.057983	-0.02121	-0.10071	0.050507	0.023956	-0.019836	0.014038	0.021515	0.57922	-0.065765	-0.015411	0.044556	0.010834	0.070343	0.10834	-0.010071	0.37949	-0.002594	0.11704	-0.048523	-0.00473	-0.013428
25.746	0.019989	-0.050659	0.024261	-0.001373	-0.1709	0.071106	-0.068359	-0.01297	0.005188	-0.011902	0.03418	-0.030365	-0.085297	0.050812	-0.014343	-0.044556	0.011444	-0.075378	-0.19379	-0.033875	-0.019379	0.052948	-0.01297	0.067596	0.080109	-0.009155	0.19241	-0.003204	-0.062103	-0.027466	-0.00061	-0.014343
25.747	0.028687	-0.034485	0.005951	0.016327	-0.092621	0.093536	-0.063782	-0.012665	0.02594	-0.000458	0.062561	-0.029449	-0.086823	0.040283	-0.034637	-0.042267	0.006256	-0.10284	-0.1738	-0.002441	-0.011597	0.088196	-0.07843	0.086823	0.026245	0.001221	0.10056	0.000763	-0.13077	-0.023804	-0.002747	-0.006409
25.748	0.019989	0.036163	-0.008545	0.001373	-0.010071	0.12421	-0.037537	-0.005798	-0.006561	0.015869	0.081024	-0.029602	-0.12177	0.031128	0.068665	-0.051727	0.003662	-0.043335	-0.36514	0.034027	-0.006256	0.10834	-0.26901	-0.027618	0.033417	0.000305	0.12436	-0.001373	-0.29663	0.033569	-0.005951	-0.012207
25.749	0.005493	0.16953	-0.031891	0.006104	0.08194	0.097809	-0.041199	0.001984	-0.043945	0.020294	-0.085449	-0.029449	-0.088806	0.032806	0.26276	-0.035858	0.011139	-0.059509	-0.20981	0.051422	0.001831	-0.025024	-0.16586	-0.059662	0.031128	-0.005188	0.13611	-0.002136	-0.22888	0.032959	-0.002289	-0.012665
25.75	-0.022125	0.16525	-0.029602	0.006256	0.09964	0.11704	-0.059509	0.007172	-0.001831	0.016632	-0.14633	-0.029144	-0.032043	0.074615	0.27298	-0.038147	0.0177	-0.033722	0.038605	-0.034027	-0.011292	-0.024414	-0.050507	-0.083618	0.005646	-0.005341	0.26016	-0.005188	-0.42099	0.024414	-0.002899	-0.016937
